# xmcd CD database file
#
# Track frame offsets:
#	150
#	36058
#	87356
#	96100
#	120412
#	147032
#	185609
#	222526
#	259221
#	291337
#
# Disc length: 4390 seconds
#
# Revision: 0
# Processed by: cddbd v1.5.1PL0 Copyright (c) Steve Scherf et al.
# Submitted via: CDex 1.51
#
DISCID=9411240a
DTITLE=Various Artist - Sounds of New Orleans
DYEAR=2000
DGENRE=Jazz
TTITLE0=Lil Liza Jane
TTITLE1=Nouveau Swing
TTITLE2=Stars Fell On Alabama
TTITLE3=The Feeling Is Gone
TTITLE4=Funk Is In The House
TTITLE5=Zachary's Smile
TTITLE6=Keep It To Yourself
TTITLE7=Tomato Song
TTITLE8=Let's Eat
TTITLE9=Mojave
EXTD=YEAR: 2000
EXTT0=
EXTT1=
EXTT2=
EXTT3=
EXTT4=
EXTT5=
EXTT6=
EXTT7=
EXTT8=
EXTT9=
PLAYORDER=
